<?xml version="1.0" encoding="UTF-8"?> <svg xmlns="http://www.w3.org/2000/svg" width="60" height="45" viewBox="0 0 60 45" fill="none"> <path d="M59.4667 3.06668C59.1334 2.80301 58.7061 2.73841 58.3229 2.8978L48.1325 7.0671C46.8691 7.5835 45.8632 8.62447 45.3004 9.99767C45.195 10.2551 45.1257 10.5226 45.0563 10.7897C43.3065 10.2301 40.0545 9.06124 36.8227 7.18799C31.9392 4.35708 28.2083 5.75533 25.0083 8.5012C23.3869 8.53706 21.1522 8.75275 18.9553 8.97054C17.554 9.10962 16.2297 9.23764 15.1558 9.31133C15.1294 8.58571 14.9785 7.86562 14.7 7.18535C14.1373 5.81202 13.1315 4.77105 11.868 4.25478L1.67731 0.0852166C1.29528 -0.0727224 0.865549 -0.00812221 0.533556 0.254099C0.198985 0.517902 0 0.947685 0 1.40634V29.5312C0 30.3085 0.559103 30.9375 1.25004 30.9375H4.90114C6.454 30.9375 7.89869 30.1135 8.83256 28.783C9.33002 29.2086 9.91924 29.7069 10.5372 30.2289C11.9959 31.4635 13.5926 32.8106 14.2933 33.4712C18.9479 37.8548 24.5436 42.5885 25.658 43.4124C26.6992 44.1814 28.5742 45 30.0001 45C30.5579 45 31.963 45 32.9493 44.062C33.9662 44.511 35.0623 44.4891 36.0816 43.9837C37.0985 43.4797 37.9212 42.5294 38.3997 41.3744C39.3763 41.5996 40.4981 41.4348 41.5149 40.8608C42.4683 40.3238 43.1702 39.5108 43.5461 38.5605C44.4494 38.6538 45.4139 38.3229 46.2768 37.5799C47.5099 36.5196 48.0745 34.9536 47.9148 33.4088L51.0855 31.4353C52.0141 32.8514 53.49 33.7498 55.0989 33.7498H58.75C59.4409 33.7498 60 33.1208 60 32.3435V4.21892C60.0001 3.76013 59.8011 3.33035 59.4667 3.06668ZM7.24244 26.2999C6.87868 27.3917 5.93755 28.1251 4.90114 28.1251H2.49997V3.41406L11.0132 6.89676C11.6455 7.15635 12.1485 7.67683 12.4292 8.36343C12.7111 9.05003 12.7356 9.81916 12.4999 10.5263L7.24244 26.2999ZM44.7596 35.3458C44.336 35.7111 43.7428 35.9144 43.4791 35.6178C43.4656 35.6026 43.4448 35.6041 43.4309 35.5896C43.407 35.5647 43.3952 35.531 43.3693 35.5078C42.4757 34.7141 38.4718 30.1054 35.9975 27.2022C35.5202 26.6406 34.728 26.6199 34.2311 27.1596C33.7319 27.6966 33.7148 28.5865 34.1933 29.1468C34.7741 29.8288 39.4362 35.2914 41.3022 37.2018C41.1629 37.8193 40.6541 38.2006 40.3957 38.3464C39.5949 38.7982 38.76 38.7227 38.4474 38.3958C38.4382 38.3861 38.4243 38.3866 38.4147 38.3771C38.3995 38.3618 38.3927 38.3403 38.3765 38.3258C36.8775 36.9786 33.1166 32.4825 32.2657 31.4415C31.7981 30.8688 31.0083 30.8331 30.4993 31.3578C29.9915 31.8838 29.9573 32.7737 30.4249 33.3449C30.4659 33.3949 34.1517 37.8677 36.2218 39.9453C36.0184 40.6029 35.6039 41.1475 35.0721 41.4116C34.6796 41.6077 34.0658 41.7083 33.3644 41.1252C31.5693 39.4129 27.9669 35.0989 27.2583 34.2458C26.7884 33.6772 25.9949 33.6484 25.492 34.1785C24.9878 34.7087 24.961 35.5985 25.4322 36.1657C26.2722 37.1771 28.7551 40.1376 30.6425 42.1422C30.4317 42.1711 30.2103 42.1876 30.0001 42.1876C29.1724 42.1876 27.7503 41.593 27.0313 41.0614C26.1549 40.4132 20.6519 35.7935 15.8997 31.3165C15.1807 30.6381 13.5401 29.2497 12.0386 27.9808C11.2338 27.3012 10.4924 26.6746 9.94596 26.2017L14.6262 12.1591C15.8411 12.0994 17.4607 11.9418 19.1748 11.7718C20.1443 11.6757 21.1149 11.5819 22.0423 11.5007C20.6168 13.147 18.4975 16.0955 18.7769 18.8593C18.9051 20.1172 19.5167 21.1651 20.5482 21.8902C22.5904 23.328 26.371 22.1222 28.1922 19.6023C29.3677 19.4114 30.1625 19.0736 31.0291 18.5902C32.4939 20.1392 34.458 21.9603 36.5211 23.8732C40.1124 27.2021 44.1834 30.9759 45.2601 33.0921C45.8594 34.2691 45.0282 35.1151 44.7596 35.3458ZM46.904 30.8233C45.2386 28.3169 41.6282 24.9634 38.1104 21.7022C35.7655 19.5282 33.5511 17.4751 32.1338 15.8808C31.7432 15.4441 31.1438 15.3452 30.6604 15.635C29.3872 16.4026 28.8135 16.7198 27.3755 16.8819C26.9922 16.9258 26.648 17.1648 26.4429 17.5314C25.4627 19.281 22.7381 20.1131 21.8738 19.5062C21.383 19.1601 21.2879 18.8085 21.261 18.5407C21.1402 17.3446 22.2168 15.2737 24.0027 13.2632C28.4254 8.28776 31.587 7.31415 35.6776 9.68719C39.564 11.9415 43.3997 13.216 45.0098 13.6975C45.0563 13.9082 45.0901 14.121 45.1588 14.3275L50.0123 28.8889L46.904 30.8233ZM57.5002 30.9375H55.099C54.0626 30.9375 53.1214 30.2041 52.7577 29.1124L47.5001 13.3402C47.2645 12.6316 47.2889 11.8626 47.5708 11.1759C47.8516 10.4893 48.3546 9.9688 48.9868 9.70921L57.5 6.22651V30.9375H57.5002Z" fill="#E38A35"></path> </svg> 