<?xml version="1.0" encoding="UTF-8"?> <svg xmlns="http://www.w3.org/2000/svg" width="50" height="50" viewBox="0 0 50 50" fill="none"> <path d="M4.46429 9.99992H3.57143V9.16659C3.57143 8.70575 3.17143 8.33325 2.67857 8.33325C2.18571 8.33325 1.78571 8.70575 1.78571 9.16659V9.99992H0.892857C0.4 9.99992 0 10.3724 0 10.8333C0 11.2941 0.4 11.6666 0.892857 11.6666H1.78571V12.4999C1.78571 12.9608 2.18571 13.3333 2.67857 13.3333C3.17143 13.3333 3.57143 12.9608 3.57143 12.4999V11.6666H4.46429C4.95714 11.6666 5.35714 11.2941 5.35714 10.8333C5.35714 10.3724 4.95714 9.99992 4.46429 9.99992Z" fill="#E38A35"></path> <path d="M32.0633 37.5841C31.5776 37.5175 31.1214 37.7858 30.999 38.175C30.8874 38.5658 31.1106 39.0133 31.5785 39.1975C32.0276 39.3766 32.5883 39.1358 32.7356 38.6308C32.891 38.1275 32.5633 37.6541 32.0633 37.5841Z" fill="#E38A35"></path> <path d="M30.747 40.6557C30.3256 40.3999 29.7854 40.4649 29.5104 40.7782C29.2229 41.0841 29.2488 41.5949 29.5773 41.9299C29.9211 42.2791 30.5166 42.2591 30.8863 41.8649C31.2425 41.4616 31.1613 40.9057 30.747 40.6557Z" fill="#E38A35"></path> <path d="M28.1705 42.9326C27.9009 42.5384 27.392 42.4092 26.9929 42.5709C26.608 42.7617 26.3839 43.1934 26.5429 43.6476C26.6902 44.0767 27.2616 44.3309 27.7616 44.0909C28.2759 43.8776 28.4357 43.3209 28.1705 42.9326Z" fill="#E38A35"></path> <path d="M24.816 44.0175C24.7481 43.5708 24.341 43.215 23.9053 43.2341C23.4705 43.2291 23.0714 43.5758 23.0151 44.0408C22.958 44.4975 23.366 44.9091 23.9267 44.9133C24.4874 44.8916 24.8856 44.4883 24.816 44.0175Z" fill="#E38A35"></path> <path d="M20.7996 42.6434C20.4041 42.4751 19.8853 42.6409 19.6326 43.0292C19.3701 43.4351 19.5585 43.9626 20.0701 44.1792C20.5862 44.3851 21.138 44.1509 21.2773 43.7109C21.421 43.2626 21.1987 42.8026 20.7996 42.6434Z" fill="#E38A35"></path> <path d="M18.4655 41.1316C18.1673 40.8366 17.6181 40.8107 17.228 41.0841C16.8217 41.3682 16.7869 41.9224 17.1726 42.3024C17.5699 42.6707 18.1726 42.6482 18.4789 42.2891C18.7923 41.9232 18.7744 41.4157 18.4655 41.1316Z" fill="#E38A35"></path> <path d="M16.7908 38.6267C16.6203 38.2534 16.1837 38.0034 15.6828 38.1067C15.2104 38.2017 14.8801 38.7075 15.0917 39.1934C15.2694 39.6909 15.8515 39.8925 16.2908 39.6834C16.739 39.4709 16.9238 39.0125 16.7908 38.6267Z" fill="#E38A35"></path> <path d="M15.5993 34.8009C15.119 34.7051 14.6297 35.0434 14.5797 35.5634C14.5413 36.0842 14.9449 36.4909 15.4538 36.4709C15.9404 36.4509 16.3493 36.1067 16.3779 35.7017C16.4163 35.2984 16.0931 34.8984 15.5993 34.8009Z" fill="#E38A35"></path> <path d="M17.0044 31.7642C16.5964 31.4817 16.0142 31.6067 15.7321 32.0592C15.4642 32.5175 15.6589 33.05 16.116 33.2217C16.583 33.3983 17.0973 33.2375 17.3044 32.8825C17.5231 32.5325 17.3946 32.035 17.0044 31.7642Z" fill="#E38A35"></path> <path d="M19.6331 29.5401C19.4001 29.1442 18.7894 29.0001 18.3465 29.3226C17.8858 29.6234 17.8421 30.1976 18.1823 30.5317C18.5269 30.8701 19.0537 30.9076 19.4126 30.6776C19.7528 30.4234 19.8823 29.9567 19.6331 29.5401Z" fill="#E38A35"></path> <path d="M22.6464 28.5751C22.5892 28.1268 22.0821 27.7743 21.541 27.9218C20.991 28.0368 20.7205 28.5601 20.9017 28.9851C21.0856 29.4234 21.5571 29.6351 21.983 29.5509C22.399 29.4318 22.7089 29.0476 22.6464 28.5751Z" fill="#E38A35"></path> <path d="M25.4719 27.7959C24.9174 27.7034 24.4442 28.0467 24.4174 28.5192C24.3915 28.9725 24.7219 29.3759 25.1505 29.4484C25.5782 29.5175 26.0362 29.2634 26.1889 28.8134C26.338 28.3792 26.0246 27.8867 25.4719 27.7959Z" fill="#E38A35"></path> <path d="M29.1077 29.1992C28.6426 28.9075 28.055 29.0367 27.8274 29.4434C27.5943 29.8584 27.7158 30.3525 28.0765 30.5775C28.43 30.8142 28.9738 30.7425 29.3015 30.4059C29.6425 30.0542 29.564 29.5042 29.1077 29.1992Z" fill="#E38A35"></path> <path d="M31.785 31.8824C31.5073 31.4266 30.8975 31.3316 30.5073 31.6149C30.1118 31.9024 30.0216 32.3866 30.2332 32.7407C30.4743 33.0791 30.9591 33.2441 31.4287 33.0541C31.8734 32.8757 32.0886 32.3232 31.785 31.8824Z" fill="#E38A35"></path> <path d="M33.0365 35.3574C32.9544 34.8399 32.491 34.5082 31.9928 34.6182C31.5205 34.7232 31.174 35.1357 31.2419 35.5357C31.2696 35.9399 31.6892 36.2757 32.1892 36.2849C32.6856 36.2941 33.0767 35.8782 33.0365 35.3574Z" fill="#E38A35"></path> <path d="M24.107 31.6667C23.6141 31.6667 23.2141 32.0392 23.2141 32.5001V36.6667H20.5266C20.0338 36.6667 19.6338 37.0392 19.6338 37.5001C19.6338 37.9609 20.0338 38.3334 20.5266 38.3334H24.107C24.5999 38.3334 24.9999 37.9609 24.9999 37.5001V32.5001C24.9999 32.0392 24.5999 31.6667 24.107 31.6667Z" fill="#E38A35"></path> <path d="M41.9639 15.8333V10C41.9639 7.7025 39.9612 5.83333 37.4996 5.83333V3.33333C37.4996 1.495 35.8978 0 33.9282 0H11.6067C9.63708 0 8.0353 1.495 8.0353 3.33333V15.9175C6.00047 16.305 4.46387 17.9883 4.46387 20V21.6667V21.8058V25V47.5C4.46387 48.8783 5.66565 50 7.14244 50H43.7496C45.2264 50 46.4282 48.8783 46.4282 47.5V39.1667V31.6667V25V21.8058V21.6667V20C46.4282 17.7025 44.4255 15.8333 41.9639 15.8333ZM37.4996 7.50417C39.2853 7.58167 40.1782 8.67167 40.1782 10V20.8333H37.4996V7.50417ZM9.82101 3.33333C9.82101 2.41417 10.6219 1.66667 11.6067 1.66667H33.9282C34.913 1.66667 35.7139 2.41417 35.7139 3.33333V20.8333H31.2014C30.7532 16.8583 27.1424 13.75 22.7674 13.75C18.3924 13.75 14.7808 16.8583 14.3335 20.8333H9.82101V3.33333ZM29.4049 20.8333H16.1299C16.5674 17.78 19.3773 15.4167 22.7674 15.4167C26.1576 15.4167 28.9665 17.78 29.4049 20.8333ZM6.24958 20C6.24958 18.915 6.99869 17.9983 8.0353 17.6533V20.8333H6.24958V20ZM44.6424 38.3333H40.1782C38.7014 38.3333 37.4996 37.2117 37.4996 35.8333V35C37.4996 33.6217 38.7014 32.5 40.1782 32.5H44.6424V38.3333ZM44.6424 30.8333H40.1782C37.7165 30.8333 35.7139 32.7025 35.7139 35V35.8333C35.7139 38.1308 37.7165 40 40.1782 40H44.6424V47.5C44.6424 47.96 44.2415 48.3333 43.7496 48.3333H7.14244C6.65047 48.3333 6.24958 47.96 6.24958 47.5V25.8333H44.6424V30.8333ZM44.6424 24.1667H6.24958V22.5H8.92815H36.6067H44.6424V24.1667ZM44.6424 20.8333H41.9639V17.5C43.4407 17.5 44.6424 18.6217 44.6424 20V20.8333Z" fill="#E38A35"></path> <path d="M49.1074 2.5H47.3217V0.833333C47.3217 0.3725 46.9217 0 46.4289 0C45.936 0 45.536 0.3725 45.536 0.833333V2.5H43.7503C43.2574 2.5 42.8574 2.8725 42.8574 3.33333C42.8574 3.79417 43.2574 4.16667 43.7503 4.16667H45.536V5.83333C45.536 6.29417 45.936 6.66667 46.4289 6.66667C46.9217 6.66667 47.3217 6.29417 47.3217 5.83333V4.16667H49.1074C49.6003 4.16667 50.0003 3.79417 50.0003 3.33333C50.0003 2.8725 49.6003 2.5 49.1074 2.5Z" fill="#E38A35"></path> <path d="M41.518 36.6667C42.2577 36.6667 42.8573 36.1071 42.8573 35.4167C42.8573 34.7264 42.2577 34.1667 41.518 34.1667C40.7783 34.1667 40.1787 34.7264 40.1787 35.4167C40.1787 36.1071 40.7783 36.6667 41.518 36.6667Z" fill="#E38A35"></path> <path d="M33.036 4.99992H32.0583C31.4726 4.99992 30.9958 4.62659 30.9958 4.16659C30.9958 3.70575 30.5958 3.33325 30.103 3.33325H15.4342C14.9413 3.33325 14.5413 3.70575 14.5413 4.16659C14.5413 4.62659 14.0646 4.99992 13.4789 4.99992H12.5003C12.0074 4.99992 11.6074 5.37242 11.6074 5.83325V14.9999C11.6074 15.4608 12.0074 15.8333 12.5003 15.8333C12.9931 15.8333 13.3931 15.4608 13.3931 14.9999V6.66659H13.478C14.7163 6.66659 15.7726 5.96992 16.1646 4.99992H29.3726C29.7646 5.96992 30.8208 6.66659 32.0583 6.66659H32.1431V14.9999C32.1431 15.4608 32.5431 15.8333 33.036 15.8333C33.5289 15.8333 33.9289 15.4608 33.9289 14.9999V5.83325C33.9289 5.37242 33.5289 4.99992 33.036 4.99992Z" fill="#E38A35"></path> </svg> 