<?xml version="1.0" encoding="UTF-8"?> <svg xmlns="http://www.w3.org/2000/svg" width="50" height="50" viewBox="0 0 50 50" fill="none"> <path d="M24.3759 29.1082C24.3759 29.4748 24.092 29.7586 23.7254 29.7586H19.5386C19.3504 29.7612 19.1534 29.6937 19.03 29.5458C18.7817 29.2738 18.8053 28.8716 19.0655 28.6233L22.5663 25.4537C23.1591 24.9222 23.2217 23.9876 22.7351 23.3644C22.2341 22.7228 21.2781 22.6162 20.6259 23.089C20.3648 23.2783 20.1476 23.6191 19.8134 23.6771C19.5014 23.7312 19.1927 23.5386 19.0895 23.2425C18.9251 22.7704 19.329 22.4878 19.6332 22.213C20.1654 21.7164 20.8632 21.4797 21.5374 21.4797C22.3061 21.4797 23.0867 21.7991 23.6425 22.4141C24.1393 22.9463 24.3759 23.6441 24.3759 24.3183C24.3759 25.0871 24.0565 25.8676 23.4416 26.4235L21.2062 28.4459H23.7254C24.0921 28.4459 24.3759 28.7416 24.3759 29.1082Z" fill="#E38A35"></path> <path d="M31.0346 27.5588C31.0346 27.9254 30.7389 28.2093 30.3723 28.2093H30.254V29.1081C30.254 29.4747 29.9701 29.7586 29.6035 29.7586C29.2369 29.7586 28.953 29.4747 28.953 29.1081V28.2093H25.2512C24.7019 28.2281 24.3798 27.5851 24.7191 27.1566C24.8697 26.9693 29.0455 21.7647 29.0947 21.7166C29.1357 21.6764 29.1883 21.6235 29.237 21.592C29.6639 21.3159 30.2542 21.6045 30.2542 22.1302V26.9083H30.3725C30.7389 26.9083 31.0346 27.2039 31.0346 27.5588ZM28.9529 23.987L26.5993 26.9083H28.9529V23.987Z" fill="#E38A35"></path> <path d="M46.0968 17.1622C44.3133 7.13438 35.0441 0 24.9999 0C14.9556 0 5.68682 7.13457 3.90312 17.1621C1.69463 17.5068 0 19.4085 0 21.6961V24.1211C0 25.0657 1.46484 25.0657 1.46484 24.1211V21.696C1.46484 19.9728 2.88193 18.5708 4.62383 18.5708H6.15234V33.7689H4.62383C2.88193 33.769 1.46484 32.3671 1.46484 30.6439V27.832C1.46484 26.8874 0 26.8874 0 27.832V30.6439C0 33.1749 2.07422 35.2339 4.62383 35.2339H6.23047C6.90967 37.7699 10.7979 37.2708 10.7979 34.6404V17.6995C10.7979 15.0737 6.91094 14.5656 6.23047 17.1061H5.40449C7.20342 7.91836 15.7704 1.46484 24.9999 1.46484C34.2294 1.46484 42.7965 7.91826 44.5954 17.1061H43.7695C43.0903 14.5701 39.202 15.0692 39.202 17.6995V34.6404C39.202 37.2663 43.0892 37.7745 43.7695 35.2339H44.5857C43.2714 42.194 36.9092 46.7313 29.9955 46.9502C29.6842 46.0395 28.8161 45.3821 27.7959 45.3821H22.2041C20.9456 45.3821 19.8813 46.4285 19.8813 47.6911C19.8813 48.9537 20.9456 50 22.2041 50H27.7959C28.8223 50 29.6947 49.3347 30.0012 48.4153C37.7474 48.187 44.7674 42.983 46.0829 35.1803C48.2981 34.8415 50 32.9363 50 30.6439V21.6961C50 19.4085 48.3053 17.5068 46.0968 17.1622ZM7.61719 17.6995C7.61719 16.6099 9.33311 16.6092 9.33311 17.6995V34.6404C9.33311 35.7303 7.61719 35.7309 7.61719 34.6404V17.6995ZM27.7959 48.5352H22.2041C21.1009 48.5352 21.1001 46.847 22.2041 46.847H27.7959C28.8992 46.847 28.9 48.5352 27.7959 48.5352ZM42.3828 34.6404C42.3828 35.7303 40.6668 35.7309 40.6668 34.6404V17.6995C40.6668 16.6098 42.3828 16.6092 42.3828 17.6995V34.6404ZM48.5352 30.6439C48.5352 32.3672 47.118 33.769 45.376 33.769H43.8477V18.5709H45.376C47.118 18.5709 48.5352 19.9729 48.5352 21.6961V30.6439Z" fill="#E38A35"></path> <path d="M28.7863 36.9928L33.1907 38.9333C33.6662 39.1429 34.2184 38.7809 34.2184 38.263V33.362C36.0753 31.1955 37.0944 28.4499 37.0944 25.5979C37.0944 23.0866 36.3199 20.6817 34.8548 18.6431C34.3038 17.8758 33.114 18.731 33.6653 19.498C34.9503 21.286 35.6295 23.3953 35.6295 25.5979C35.6295 28.1824 34.6748 30.6679 32.9411 32.5966C32.8203 32.7311 32.7534 32.9055 32.7534 33.0863V37.1401L29.1157 35.5375C28.9451 35.4622 28.7521 35.455 28.5763 35.5171C27.4294 35.9229 26.2261 36.1286 24.9997 36.1286C19.1385 36.1286 14.37 31.4045 14.37 25.5979C14.37 19.7913 19.1386 15.0671 24.9998 15.0671C27.1855 15.0671 29.2847 15.7189 31.0702 16.952C31.8475 17.4887 32.6799 16.2834 31.9025 15.7466C29.8712 14.3438 27.4842 13.6023 24.9998 13.6023C18.3309 13.6023 12.9053 18.9834 12.9053 25.5978C12.9053 32.2122 18.3309 37.5933 24.9998 37.5933C26.2941 37.5933 27.5664 37.3915 28.7863 36.9928Z" fill="#E38A35"></path> </svg> 