<?xml version="1.0" encoding="UTF-8"?> <svg xmlns="http://www.w3.org/2000/svg" width="50" height="45" viewBox="0 0 50 45" fill="none"> <path d="M24.1615 8.95033H24.1609V6.94614V2.93646H24.1615H25.8386V8.95033H25.8368V8.95153L24.9994 8.95033H24.1615ZM3.9475 29.2042L8.13093 28.4603L9.81831 28.1604V28.1592H9.81891L9.67141 27.3201L9.5275 26.4953H9.5269V26.4941L3.65579 27.5379L3.9475 29.2042ZM41.0434 14.3176L38.0268 16.0732V16.0744L38.4921 16.8884L38.8649 17.538L44.0275 14.5314L43.1887 13.0666L41.0434 14.3176ZM14.9936 36.6367L14.3327 36.0774L10.5002 40.6833L11.7855 41.7711L13.4531 39.7657L15.6175 37.164L14.9936 36.6367ZM43.1687 36.2226L44.0064 34.7569L42.2055 33.7077L38.845 31.7487V31.7499L38.3818 32.5581L38.0073 33.2139V33.2151L43.1687 36.2226ZM3.66288 21.6719L5.75664 22.043L9.53299 22.7166V22.7153H9.53358L9.78308 21.2842L9.8235 21.0497V21.0485L3.95269 20.0033L3.66288 21.6719ZM46.0108 20.0486L44.4151 20.3318L40.1397 21.0911V21.0923H40.1391L40.3549 22.3262L40.4305 22.757V22.7582L46.3022 21.7145L46.0108 20.0486ZM18.8963 10.1768V10.178L20.2572 9.67722L20.471 9.59869H20.4716L18.4336 3.94666L16.8576 4.52626L17.1482 5.33198L18.8963 10.1768ZM6.76769 36.1845L11.9297 33.1783V33.177L11.2841 32.0494L11.0915 31.7125L5.92859 34.7188L6.76709 36.1839H6.76769V36.1845ZM34.3087 37.1914L38.1405 41.7997L39.4241 40.7118V40.7106L35.5934 36.1034V36.1046V36.1034L34.7021 36.858L34.3087 37.1914ZM5.95044 14.4946L11.1131 17.5025L11.8392 16.2326L11.951 16.0377V16.0365L6.78835 13.0299L5.95044 14.4946ZM46.2939 27.5808L40.4234 26.5359L40.3609 26.893L40.132 28.2022L46.0031 29.2471L46.2939 27.5808ZM11.8169 7.45305L10.5327 8.54057L11.9407 10.233L14.3649 13.1474L15.1235 12.5046L15.6484 12.0605L15.649 12.0592L11.8169 7.45305ZM31.062 5.35423L29.5248 9.61258L29.526 9.61379L30.576 9.99818L31.101 10.1907H31.1016L33.1409 4.54005L31.5646 3.96196L31.062 5.35423ZM35.2997 12.9001L35.6253 13.1751L39.4578 8.56735L38.1731 7.48104H38.1725L34.3406 12.0872V12.0884L35.2997 12.9001ZM25 0C11.2155 0 0 11.3134 0 25.2207C0 33.2316 3.72575 40.3762 9.51682 45H12.0477C5.69207 40.7499 1.49088 33.4721 1.49088 25.2207C1.49088 12.1431 12.0368 1.50432 24.9999 1.50432C37.9635 1.50432 48.5094 12.1431 48.5094 25.2207C48.5094 33.4721 44.3082 40.7499 37.9523 45H40.4835C46.2737 40.3762 50 33.2316 50 25.2207C50.0002 11.3139 38.7847 0 25 0ZM20.1199 36.2653C20.6444 36.2653 20.9059 35.7382 20.9059 34.6849C20.9059 33.5947 20.6497 33.0484 20.1362 33.0484C19.595 33.0484 19.3239 33.6024 19.3239 34.7117C19.3239 35.7477 19.5897 36.2653 20.1199 36.2653ZM17.879 31.1787H22.3253V38.1958H17.879V31.1787ZM18.8794 34.7325C18.8794 35.3491 18.9844 35.8191 19.1953 36.1452C19.4059 36.4707 19.6991 36.6343 20.0754 36.6343C20.4777 36.6343 20.7904 36.463 21.0145 36.1226C21.2387 35.7805 21.351 35.287 21.351 34.6391C21.351 33.3317 20.954 32.6777 20.1604 32.6777C19.7454 32.6777 19.4288 32.8496 19.2092 33.1984C18.9891 33.5447 18.8794 34.0565 18.8794 34.7325ZM22.9096 31.1787H27.2761V38.1958H22.9096V31.1787ZM24.0566 36.476C24.23 36.5807 24.4916 36.6343 24.8424 36.6343C25.2585 36.6343 25.5868 36.5212 25.8251 36.2951C26.0634 36.069 26.1838 35.7703 26.1838 35.4001C26.1838 35.043 26.0729 34.761 25.851 34.555C25.6282 34.3503 25.3143 34.2467 24.9084 34.2467C24.8093 34.2467 24.7024 34.2503 24.5858 34.2574V33.1363H26.0116V32.7411H24.175V34.6611C24.4664 34.6397 24.6649 34.629 24.7702 34.629C25.0832 34.629 25.3229 34.6992 25.4902 34.8396C25.6577 34.9802 25.742 35.1765 25.742 35.4264C25.742 35.68 25.66 35.8821 25.4954 36.0358C25.3312 36.1893 25.1155 36.2654 24.8475 36.2654C24.5791 36.2654 24.3159 36.181 24.0561 36.0119V36.476H24.0566ZM27.7286 31.1787H32.1203V38.1958H27.7286V31.1787ZM28.8204 34.7325C28.8204 35.3491 28.9255 35.8191 29.1366 36.1452C29.3471 36.4707 29.6404 36.6343 30.0167 36.6343C30.419 36.6343 30.7322 36.463 30.9558 36.1226C31.1799 35.7805 31.292 35.287 31.292 34.6391C31.292 33.3317 30.8944 32.6777 30.1009 32.6777C29.6864 32.6777 29.3695 32.8496 29.1495 33.1984C28.9302 33.5447 28.8204 34.0565 28.8204 34.7325ZM30.0616 36.2653C30.5854 36.2653 30.8479 35.7382 30.8479 34.6849C30.8479 33.5947 30.5913 33.0484 30.0781 33.0484C29.5366 33.0484 29.2658 33.6024 29.2658 34.7117C29.2652 35.7477 29.5307 36.2653 30.0616 36.2653ZM25.7294 27.5558C25.6244 27.5558 25.5324 27.594 25.4357 27.6142L13.9781 17.4169L24.1701 28.99C24.1633 29.0483 24.1344 29.1007 24.1344 29.1584C24.1344 30.0493 24.8474 30.7692 25.7294 30.7692C26.606 30.7692 27.3186 30.0493 27.3186 29.1584C27.3198 28.2759 26.6061 27.5558 25.7294 27.5558Z" fill="#E38A35"></path> </svg> 