<?xml version="1.0" encoding="UTF-8"?> <svg xmlns="http://www.w3.org/2000/svg" width="50" height="50" viewBox="0 0 50 50" fill="none"> <path d="M30.5065 22.1024L37.0165 26.7366C37.3058 26.9426 37.6939 26.9426 37.9832 26.7366L44.4932 22.1024C45.8494 21.1419 46.6587 19.5859 46.6665 17.924V8.064C46.667 7.7322 46.4706 7.43172 46.1665 7.299L37.8332 3.69898C37.6226 3.60815 37.3838 3.60815 37.1732 3.69898L28.8398 7.299C28.5357 7.43172 28.3394 7.7322 28.3398 8.064V17.924C28.3463 19.5847 29.153 21.1403 30.5065 22.1024ZM29.9998 8.6115L37.4998 5.37232L44.9998 8.6115V17.924C44.9938 19.0488 44.4447 20.1014 43.5257 20.7499L37.4998 25.0349L31.474 20.7449C30.5561 20.0977 30.0071 19.0472 29.9998 17.924V8.6115Z" fill="#E38A35"></path> <path d="M35.3337 19.8332C35.6937 20.1034 36.2032 20.0388 36.4845 19.6873L43.1512 11.354C43.4388 10.9945 43.3806 10.4699 43.0212 10.1823C42.6617 9.89464 42.1372 9.95284 41.8495 10.3123L35.6828 18.0157L33.0003 15.9998C32.7622 15.8212 32.4468 15.7832 32.173 15.9001C31.8992 16.0171 31.7086 16.2712 31.673 16.5668C31.6374 16.8624 31.7622 17.1545 32.0003 17.3332L35.3337 19.8332Z" fill="#E38A35"></path> <path d="M1.66667 44.1666H2.5V47.5C2.5 48.8807 3.61929 50 5 50H10C11.3807 50 12.5 48.8807 12.5 47.5V44.1666H32.5V47.5C32.5 48.8807 33.6193 50 35 50H40C41.3807 50 42.5 48.8807 42.5 47.5V44.1666H43.3333C44.2538 44.1666 45 43.4204 45 42.5V29.9999C45.0031 28.7922 44.4764 27.6439 43.5592 26.8582L46.4258 24.8182C48.66 23.2316 49.991 20.6642 50 17.924V5.87315C50.0005 5.54135 49.8041 5.24087 49.5 5.10815L37.8333 0.0681249C37.6227 -0.0227083 37.384 -0.0227083 37.1733 0.0681249L25.5 5.10815C25.1959 5.24087 24.9995 5.54135 25 5.87315V9.1665H12.3917C10.6249 9.16709 9.0506 10.2819 8.46333 11.9482L3.555 25.8949C1.51734 26.1948 0.00568931 27.9403 0 29.9999V42.5C0 43.4204 0.746192 44.1666 1.66667 44.1666ZM10.8333 47.5C10.8333 47.9602 10.4602 48.3333 10 48.3333H5C4.53976 48.3333 4.16667 47.9602 4.16667 47.5V44.1666H10.8333V47.5ZM7.5 42.5H5.83333V40.8333H7.5V42.5ZM40.8333 47.5C40.8333 47.9602 40.4602 48.3333 40 48.3333H35C34.5398 48.3333 34.1667 47.9602 34.1667 47.5V44.1666H40.8333V47.5ZM39.1667 42.5H37.5V40.8333H39.1667V42.5ZM26.6667 6.42065L37.5 1.74063L48.3333 6.42065V17.9207C48.3251 20.122 47.2547 22.1839 45.4592 23.4574L37.5 29.1266L29.5408 23.4599C27.7455 22.1866 26.6752 20.125 26.6667 17.924V6.42065ZM39.1667 30.8333C39.6269 30.8333 40 31.2064 40 31.6666V33.3333C40 33.7935 39.6269 34.1666 39.1667 34.1666H34.1667C33.7064 34.1666 33.3333 33.7935 33.3333 33.3333C33.3333 31.9525 34.4526 30.8333 35.8333 30.8333H39.1667ZM25 14.1665V15.8332H19.1667V14.1665H25ZM25 12.4998H23.3333V10.8332H25V12.4998ZM10.0358 12.4998C10.3888 11.5014 11.3326 10.8337 12.3917 10.8332H21.6667V12.4998H19.1667C18.2462 12.4998 17.5 13.246 17.5 14.1665V15.8332C17.5 16.7537 18.2462 17.4999 19.1667 17.4999H25V17.924C25.009 20.6642 26.34 23.2316 28.5742 24.8182L30 25.8332H5.34333L10.0358 12.4998ZM1.66667 29.9999C1.66667 28.6192 2.78595 27.4999 4.16667 27.4999H32.3417L34.86 29.2932C32.9912 29.7422 31.6719 31.4113 31.6667 33.3333C31.6667 34.714 32.786 35.8333 34.1667 35.8333H39.1667C40.5474 35.8333 41.6667 34.714 41.6667 33.3333V31.6666C41.6639 30.6372 41.0305 29.7147 40.0708 29.3424L42.1342 27.8732C42.8815 28.3205 43.3374 29.129 43.3333 29.9999L43.3334 42.5H40.8333V40.8333C40.8333 39.9128 40.0871 39.1666 39.1667 39.1666H37.5C36.5795 39.1666 35.8333 39.9128 35.8333 40.8333V42.5H9.16667V40.8333C9.16667 39.9128 8.42047 39.1666 7.5 39.1666H5.83333C4.91286 39.1666 4.16667 39.9128 4.16667 40.8333V42.5H1.66667V29.9999Z" fill="#E38A35"></path> <path d="M15 12.5H13.5742C12.5148 12.5012 11.5706 13.1685 11.2159 14.1667L8.08752 23.0567C7.93472 23.4909 8.16287 23.9668 8.59711 24.1196C9.03134 24.2724 9.50722 24.0443 9.66002 23.61L12.7884 14.7233C12.9057 14.3899 13.2207 14.1668 13.5742 14.1667H15C15.4603 14.1667 15.8334 13.7936 15.8334 13.3333C15.8334 12.8731 15.4603 12.5 15 12.5Z" fill="#E38A35"></path> <path d="M5.83301 35.8332H10.833C12.2137 35.8332 13.333 34.7139 13.333 33.3332C13.3303 31.0331 11.4664 29.1693 9.16634 29.1665H5.83301C4.4523 29.1665 3.33301 30.2858 3.33301 31.6665V33.3332C3.33301 34.7139 4.4523 35.8332 5.83301 35.8332ZM4.99967 31.6665C4.99967 31.2063 5.37277 30.8332 5.83301 30.8332H9.16634C10.5471 30.8332 11.6663 31.9525 11.6663 33.3332C11.6663 33.7934 11.2932 34.1665 10.833 34.1665H5.83301C5.37277 34.1665 4.99967 33.7934 4.99967 33.3332V31.6665Z" fill="#E38A35"></path> <path d="M16.6667 40.8332H28.3333C29.2538 40.8332 30 40.087 30 39.1665V35.8332C30 34.9127 29.2538 34.1665 28.3333 34.1665H16.6667C15.7462 34.1665 15 34.9127 15 35.8332V39.1665C15 40.087 15.7462 40.8332 16.6667 40.8332ZM16.6667 35.8332H28.3333V39.1665H16.6667V35.8332Z" fill="#E38A35"></path> </svg> 