<?xml version="1.0" encoding="UTF-8"?> <svg xmlns="http://www.w3.org/2000/svg" width="50" height="50" viewBox="0 0 50 50" fill="none"> <path d="M49.3351 29.0506C48.6337 28.0717 47.4652 27.4139 46.2858 27.3338C45.3231 27.269 44.4507 27.5938 43.8301 28.25C43.6939 28.394 43.547 28.5521 43.3915 28.7214C42.7049 28.0931 41.8051 27.6888 40.898 27.6272C39.9349 27.5628 39.0628 27.8873 38.4423 28.5435C37.0914 29.9718 34.6994 32.7621 32.8209 34.9834C32.5759 34.8387 32.3138 34.7193 32.0365 34.6298C31.1386 34.2435 18.7609 28.9633 13.2743 28.9633C4.41156 28.9633 0.339907 33.7216 0.170964 33.9241C-0.0882198 34.2348 -0.0461796 34.6957 0.264039 34.9555C0.574355 35.2153 1.03738 35.1746 1.29843 34.8654C1.30781 34.8544 2.259 33.7419 4.20185 32.6457C5.99257 31.6355 9.02025 30.431 13.2742 30.431C18.5453 30.431 31.3587 35.9361 31.4876 35.9917C31.7231 36.0932 31.966 36.1708 32.1811 36.3142C32.3842 36.4495 32.5659 36.6166 32.7183 36.8071C33.0141 37.1774 33.1994 37.6354 33.2383 38.1078C33.3201 39.0977 32.7639 40.054 31.8661 40.4768C31.2999 40.7434 30.7014 40.7514 30.1066 40.5886L22.09 38.3832C21.704 38.277 21.2928 38.5105 21.1865 38.8958C21.0802 39.2814 21.3138 39.692 21.6997 39.7982L29.7052 42.0005C30.6778 42.3003 31.7408 42.2022 32.642 41.7301C33.5574 41.2507 34.2311 40.4438 34.5389 39.4583C34.6394 39.1368 34.6961 38.8088 34.7115 38.481L36.8616 38.2548C37.0518 38.2348 37.2268 38.1414 37.3493 37.9945C37.4023 37.931 42.6745 31.6089 44.8983 29.2577C45.8226 28.28 47.4729 28.9731 48.1404 29.9045C49.1668 31.3369 47.8913 32.9004 47.476 33.3457C45.435 35.533 41.6923 40.0396 41.0196 40.8519L25.787 48.4595L17.9498 45.1634C17.5808 45.0082 17.1429 45.1862 16.9876 45.555C16.8322 45.9235 17.0105 46.3608 17.3795 46.516L25.5283 49.9431C25.7242 50.0256 25.9519 50.0181 26.142 49.9232L41.8157 42.0952C41.9074 42.0494 41.9884 41.9849 42.0538 41.9058C42.0968 41.8538 46.3809 36.6721 48.551 34.3462C50.1484 32.6345 50.4491 30.605 49.3351 29.0506ZM36.4114 36.8266L34.497 37.0279C34.3613 36.6441 34.1655 36.2835 33.9188 35.9598C35.5189 34.0677 38.1192 31.0226 39.5103 29.5517C39.9122 29.1266 40.4324 29.0664 40.7982 29.0919C41.3742 29.1311 41.9648 29.4025 42.409 29.8129C40.2047 32.2985 37.2037 35.8786 36.4114 36.8266Z" fill="#E38A35"></path> <path d="M14.3424 43.6469L11.2078 42.3285C11.1176 42.2905 11.0206 42.271 10.9227 42.271H0.734728C0.32899 42.271 0 42.5995 0 43.0049C0 43.4103 0.32899 43.7388 0.734728 43.7388H10.7742L13.772 44.9995C14.1664 45.1655 14.6287 44.9498 14.7578 44.5438C14.8712 44.1873 14.6871 43.7918 14.3424 43.6469Z" fill="#E38A35"></path> <path d="M39.0319 24.4697L35.9035 24.9162C38.4475 22.1936 39.8705 18.6269 39.8705 14.8242C39.8705 6.65017 33.2128 0 25.0295 0C16.8461 0 10.1885 6.65017 10.1885 14.8242C10.1885 18.104 11.2391 21.2121 13.2267 23.8124C15.1504 26.329 17.8782 28.1958 20.9079 29.069C21.3086 29.1843 21.7341 28.9325 21.8276 28.5275C21.9141 28.1529 21.6843 27.7652 21.3152 27.6587C15.6291 26.02 11.6578 20.7421 11.6578 14.8241C11.6578 7.45926 17.6564 1.46759 25.0295 1.46759C32.4027 1.46759 38.4011 7.45926 38.4011 14.8241C38.4011 18.4648 36.9542 21.8663 34.3847 24.3696V20.4993C34.3847 20.094 34.0558 19.7654 33.65 19.7654C33.2442 19.7654 32.9153 20.094 32.9153 20.4993V25.9789C32.9153 26.4177 33.3187 26.7679 33.7539 26.7055L39.2397 25.9226C39.636 25.8661 39.9199 25.4883 39.8632 25.0924C39.8066 24.6968 39.4278 24.4137 39.0319 24.4697Z" fill="#E38A35"></path> <path d="M25.0287 14.0901H24.245C23.3538 14.0901 22.6287 13.3658 22.6287 12.4756C22.6287 11.5854 23.3539 10.8611 24.245 10.8611H27.3798C27.7856 10.8611 28.1145 10.5325 28.1145 10.1272C28.1145 9.7218 27.7856 9.39328 27.3798 9.39328H25.7634V8.56153C25.7634 8.15616 25.4345 7.82764 25.0286 7.82764C24.6229 7.82764 24.2939 8.15616 24.2939 8.56153V9.39328H24.2449C22.5435 9.39328 21.1592 10.776 21.1592 12.4755C21.1592 14.1751 22.5435 15.5578 24.2449 15.5578H25.0286C25.9199 15.5578 26.645 16.2821 26.645 17.1723C26.645 18.0624 25.9199 18.7867 25.0286 18.7867H21.8939C21.4882 18.7867 21.1592 19.1153 21.1592 19.5206C21.1592 19.926 21.4882 20.2545 21.8939 20.2545H24.2939V21.0863C24.2939 21.4917 24.6229 21.8202 25.0286 21.8202C25.4345 21.8202 25.7634 21.4917 25.7634 21.0863V20.1657C27.1112 19.8355 28.1144 18.6191 28.1144 17.1724C28.1145 15.4728 26.7302 14.0901 25.0287 14.0901Z" fill="#E38A35"></path> </svg> 